<svg xmlns="http://www.w3.org/2000/svg" width="37" height="27" viewBox="0 0 37 27"><defs><style>.cls-1{fill:#424141;fill-rule:evenodd}</style></defs><path class="cls-1" d="M33.216 19.322a3.727 3.727 0 0 0-2.152.683l-1.98-2a12.151 12.151 0 0 0 4.106-4.681l3.387-6.812a.752.752 0 0 0-.03-.727.737.737 0 0 0-.628-.355H9.966L4.819.221A.732.732 0 0 0 4.3 0H.739a.746.746 0 0 0 0 1.492h3.255l4.932 4.99v18.426A2.083 2.083 0 0 0 11 27a2.016 2.016 0 0 0 1.444-.617l6.276-6.35h3.707a11.921 11.921 0 0 0 5.334-1.262l2.278 2.306a3.774 3.774 0 1 0 3.177-1.755zM11.4 25.329a.571.571 0 0 1-.64.128.581.581 0 0 1-.363-.549v-4.875h6.236zm11.025-6.788H10.4V6.919h24.325l-2.85 5.731a10.509 10.509 0 0 1-9.449 5.891zm10.79 6.947a2.337 2.337 0 1 1 2.309-2.337 2.326 2.326 0 0 1-2.308 2.337zM20.931 8.012h-8.7a.746.746 0 0 0 0 1.492h8.7a.746.746 0 0 0 .001-1.492zm3.022 0h-.516a.746.746 0 0 0 0 1.492h.516a.746.746 0 0 0 .001-1.492z"/></svg>