<svg xmlns="http://www.w3.org/2000/svg" width="41" height="22" viewBox="0 0 41 22"><defs><style>.cls-1{fill:#424141;fill-rule:evenodd}</style></defs><path class="cls-1" d="M25.945 8a29.7 29.7 0 0 0-8.489-1.152.794.794 0 1 0 0 1.587 27.968 27.968 0 0 1 7.992 1.078.864.864 0 0 0 .249.037.824.824 0 0 0 .786-.554.789.789 0 0 0-.538-.996zM6.462 9.166a.915.915 0 1 1-.95.914.933.933 0 0 1 .95-.918zm0 0a.915.915 0 1 1-.95.914.933.933 0 0 1 .95-.918zM25.945 8a29.7 29.7 0 0 0-8.489-1.152.794.794 0 1 0 0 1.587 27.968 27.968 0 0 1 7.992 1.078.864.864 0 0 0 .249.037.824.824 0 0 0 .786-.554.789.789 0 0 0-.538-.996zm14.762 9.442a7.911 7.911 0 0 1 0-12.34.772.772 0 0 0 .263-.807.813.813 0 0 0-.642-.577 8.225 8.225 0 0 0-1.487-.134 8.053 8.053 0 0 0-6.566 3.31 16.389 16.389 0 0 0-4.571-2.261l.034-1.29c.049-1.8-1.966-3.267-4.587-3.333-5.267-.131-10.317 1.347-13.568 3.962a19.39 19.39 0 0 0-6.709 2.75c-1.88 1.325-2.875 2.9-2.875 4.55 0 2.768 2.744 5.225 7.527 6.74a29.345 29.345 0 0 0 4.879 1.073A8.252 8.252 0 0 0 18.621 22h.046a2.626 2.626 0 0 0 1.8-.7 2.438 2.438 0 0 0 .79-1.748l.006-.322q.759-.078 1.5-.185a4.533 4.533 0 0 0 3.667 1.825 4.413 4.413 0 0 0 4.49-4.322v-.028a12.334 12.334 0 0 0 1.357-.875 8.055 8.055 0 0 0 6.567 3.309 8.222 8.222 0 0 0 1.486-.134.813.813 0 0 0 .642-.577.771.771 0 0 0-.265-.805zm-17.6-15.846c1.782.045 3 .935 2.982 1.706l-.023.849a34.72 34.72 0 0 0-8.612-1.032 38.02 38.02 0 0 0-3.624.17 22.087 22.087 0 0 1 9.279-1.697zm-21.46 9.676c0-1.942 2.242-3.821 5.894-5.071a7.468 7.468 0 0 1 0 10.14c-3.698-1.273-5.892-3.149-5.892-5.073zm17.955 8.257a.876.876 0 0 1-.287.634.952.952 0 0 1-.667.254 6.668 6.668 0 0 1-3.528-1.064c.772.047 1.552.072 2.334.072q1.086 0 2.152-.061zm6.823-.241a2.912 2.912 0 0 1-1.743-.574 24.93 24.93 0 0 0 4.452-1.332 2.837 2.837 0 0 1-2.707 1.902zm6.787-5.207l-.006-.008a.523.523 0 0 0-.024-.042.762.762 0 0 0-.114-.143.845.845 0 0 0-1.165-.021c-1.745 1.617-4.976 2.9-8.865 3.535a34.953 34.953 0 0 1-5.583.437 36.03 36.03 0 0 1-4.5-.279 29.561 29.561 0 0 1-3.717-.708 9 9 0 0 0 0-11.159c.3-.077.6-.151.912-.22a33.521 33.521 0 0 1 7.3-.766 31.994 31.994 0 0 1 9.16 1.252 13.783 13.783 0 0 1 5.289 2.719.847.847 0 0 0 1.166-.021 1.268 1.268 0 0 0 .137-.186 6.333 6.333 0 0 1 5.119-3.279 9.408 9.408 0 0 0 0 12.161 6.335 6.335 0 0 1-5.107-3.276zM6.46 9.166a.915.915 0 1 1-.95.914.933.933 0 0 1 .952-.918zM25.945 8a29.7 29.7 0 0 0-8.489-1.152.794.794 0 1 0 0 1.587 27.968 27.968 0 0 1 7.992 1.078.864.864 0 0 0 .249.037.824.824 0 0 0 .786-.554.789.789 0 0 0-.538-.996z"/></svg>