<svg xmlns="http://www.w3.org/2000/svg" width="22" height="30" viewBox="0 0 22 30"><defs><style>.cls-1{fill:#424141;fill-rule:evenodd}</style></defs><path class="cls-1" d="M20.831 11.318l-3.094-3.545a1.848 1.848 0 0 1-.481-1.364V5.318a1.988 1.988 0 0 0 1.375-1.909V2.045A2.017 2.017 0 0 0 16.568 0H5.5a2.017 2.017 0 0 0-2.062 2.045v1.364A2.017 2.017 0 0 0 5.5 5.454h8.25a.682.682 0 1 0 0-1.363H5.5a.647.647 0 0 1-.687-.682V2.045a.646.646 0 0 1 .687-.681h11a.646.646 0 0 1 .688.681v1.364a.647.647 0 0 1-.688.682.646.646 0 0 0-.687.682v1.7a3.373 3.373 0 0 0 .825 2.25l3.094 3.546a3.369 3.369 0 0 1 .825 2.249V27.95a.647.647 0 0 1-.688.682H2.062a.646.646 0 0 1-.687-.682V14.523a3.247 3.247 0 0 1 .824-2.25l3.781-4.3a.657.657 0 0 0-.069-.954.671.671 0 0 0-.962.068l-3.781 4.295A4.671 4.671 0 0 0 0 14.523v13.431A2.018 2.018 0 0 0 2.062 30h17.875A2.017 2.017 0 0 0 22 27.954V14.523a4.976 4.976 0 0 0-1.169-3.205zm-2.269 2.318H3.437a.648.648 0 0 0-.688.682v10.909a.648.648 0 0 0 .688.682h15.125a.647.647 0 0 0 .687-.682V14.318a.647.647 0 0 0-.687-.682zm-.688 10.909H4.124V15h13.75v9.545zm-4.125-5.454h-2.062v-2.046a.688.688 0 0 0-1.375 0v2.046H8.249a.682.682 0 1 0 0 1.363h2.063V22.5a.688.688 0 0 0 1.375 0v-2.046h2.062a.682.682 0 1 0 0-1.363z"/></svg>