<svg xmlns="http://www.w3.org/2000/svg" width="40" height="29" viewBox="0 0 40 29"><defs><style>.cls-1{fill:#424141;fill-rule:evenodd}</style></defs><path class="cls-1" d="M35.468 2.932h-.561A2.571 2.571 0 0 0 31.184.9a11.369 11.369 0 0 1-5.722.123 3.291 3.291 0 0 1-2.5-.761 3.273 3.273 0 0 0-2 .676 4.993 4.993 0 0 0-5.3-.331 3.287 3.287 0 0 0-4.672.908 4.983 4.983 0 0 0-5.506 1.606 2.316 2.316 0 0 0-.8-.047 2 2 0 0 0-2.522-.011 2.308 2.308 0 0 0-.368 4.556 44.815 44.815 0 0 1-.624 7.972 4.968 4.968 0 0 0 4.145 4.895c.178.147.361.288.547.422v1.222a3.518 3.518 0 0 0 1.591 2.931V28.3a.7.7 0 0 0 .7.7h4.866a.7.7 0 0 0 .7-.7v-3.238a3.536 3.536 0 0 0 1.388-1.764 5.292 5.292 0 0 0 4.949.254 3.553 3.553 0 0 0 1.286 1.51V28.3a.7.7 0 0 0 .7.7h4.857a.7.7 0 0 0 .7-.7v-3.238a3.522 3.522 0 0 0 1.59-2.931v-.272a4.968 4.968 0 0 0 3.78-4.82c0-.131-.007-.263-.017-.4a3.263 3.263 0 0 0 .209-4.514c0-.052-.007-.1-.01-.155h2.3a4.521 4.521 0 1 0 .017-9.038zM26.685 4.22a.778.778 0 0 0 .674-.782v-.037a1.721 1.721 0 0 1 3.1-1.014.782.782 0 0 0 1.179.086 1.006 1.006 0 0 1 1.717.71 1.807 1.807 0 0 1-.045.3 1.006 1.006 0 0 1-1.567.5.781.781 0 0 0-1.156.247 1.707 1.707 0 0 1-.408.5.777.777 0 0 0-.154 1.021 3.4 3.4 0 0 1 .176 3.395.78.78 0 0 0 .212.965.994.994 0 0 1 .383.786 1.006 1.006 0 0 1-1.914.43.779.779 0 0 0-.7-.443c-.063 0-.741.125-1.022.125a3.407 3.407 0 0 1-.475-6.789zm-16.8 23.378H8.861v-2a3.5 3.5 0 0 0 .514.039 3.58 3.58 0 0 0 .51-.038v2zm.427-3.587a4.129 4.129 0 0 1-.937.219 2.089 2.089 0 0 1-.913-.207A2.11 2.11 0 0 1 7.27 22.13v-.37a10.058 10.058 0 0 0 1.491.606 10.181 10.181 0 0 0 2.6.46 2.086 2.086 0 0 1-.391.676 2.129 2.129 0 0 1-.655.509zm2.009 3.587H11.3v-2a3.62 3.62 0 0 0 .512.038 3.539 3.539 0 0 0 .515-.039v2zm.4-3.575a2.086 2.086 0 0 1-.5.167 3.506 3.506 0 0 0 .549-1.144c.058 0 .118.006.176.006a3.3 3.3 0 0 0 .8-.1 2.108 2.108 0 0 1-1.025 1.071zm11.053 3.575h-1.017v-2a3.529 3.529 0 0 0 .515.039 3.64 3.64 0 0 0 .5-.037v2zm.32-3.535a2.11 2.11 0 0 1-1.734-.04 2.118 2.118 0 0 1-1.069-1.185h1.7a10.268 10.268 0 0 0 2.337-.271 2.092 2.092 0 0 1-.464.936 5.019 5.019 0 0 1-.77.56zm2.114 3.535h-1.015v-2a3.748 3.748 0 0 0 .5.036 3.376 3.376 0 0 0 .515-.039v2zm.4-3.575a2.073 2.073 0 0 1-.5.165 3.5 3.5 0 0 0 .671-2.058v-.019c.137-.056.273-.113.409-.174a5.142 5.142 0 0 0 .606.062 2.2 2.2 0 0 1-1.187 2.024zm5.082-8.344a.779.779 0 0 0-.32.771 3.4 3.4 0 0 1-2.961 3.973 3.443 3.443 0 0 1-1.148-.058.778.778 0 0 0-.511.059 8.605 8.605 0 0 1-3.757.856H20.9a.781.781 0 0 0-.534.211 3.932 3.932 0 0 1-.35.287 3.73 3.73 0 0 1-4.73-.289.783.783 0 0 0-.532-.209h-.8a.784.784 0 0 0-.317.067 1.72 1.72 0 0 1-1.222.065 2.735 2.735 0 0 0-.489-.132 16.779 16.779 0 0 1-2.693-.4 8.6 8.6 0 0 1-2.229-1.077 8.809 8.809 0 0 1-.837-.643.791.791 0 0 0-.422-.187 3.407 3.407 0 0 1-2.741-4.711.774.774 0 0 0-.149-.836 3.4 3.4 0 0 1 .313-4.953.779.779 0 0 0 .282-.59 1.686 1.686 0 0 1 .194-.769.78.78 0 0 0-1.023-1.066.724.724 0 0 1-.31.07.752.752 0 1 1 0-1.5.793.793 0 0 0 .767-.274.419.419 0 0 1 .341-.162.441.441 0 0 1 .364.192.779.779 0 0 0 .912.29.74.74 0 0 1 .657.07.782.782 0 0 0 1.086-.26 3.44 3.44 0 0 1 2.938-1.668 3.394 3.394 0 0 1 1.625.409.781.781 0 0 0 1.116-.453 1.722 1.722 0 0 1 2.9-.656.781.781 0 0 0 1.028.1 3.42 3.42 0 0 1 4.4.339.783.783 0 0 0 1.162-.07 1.721 1.721 0 0 1 2.636-.075.783.783 0 0 0 .778.239 1.735 1.735 0 0 1 .863 0q-.02.082-.036.168a4.964 4.964 0 0 0 1.305 9.757 5.293 5.293 0 0 0 .654-.042 2.566 2.566 0 0 0 3.841.135.775.775 0 0 0 .22.368 1.7 1.7 0 0 1 .549 1.254 1.724 1.724 0 0 1-.728 1.4zm3.779-5.264h-3.153a2.54 2.54 0 0 0-.49-1.089 9.045 9.045 0 0 0 .255-.98 5.049 5.049 0 0 0 .057-.751 4.944 4.944 0 0 0-.388-1.922 2.574 2.574 0 0 0 2.81-1.183h.909a2.963 2.963 0 1 1-.001 5.925zm-1.727-4.209a.891.891 0 1 1-.893.891.892.892 0 0 1 .892-.891zm-25.4 1.449a1.735 1.735 0 0 0-2.127 2.122.702.702 0 0 0 1.357-.364.332.332 0 0 1 .407-.4.703.703 0 1 0 .363-1.358zm9.141 3.785a2.007 2.007 0 0 0-1.927-.516.701.701 0 1 0 .362 1.355.589.589 0 0 1 .724.72.7.7 0 0 0 .5.858.678.678 0 0 0 .183.025.7.7 0 0 0 .678-.52 1.99 1.99 0 0 0-.52-1.922zm.877-7.328a1.993 1.993 0 0 0-2.444 2.438.7.7 0 0 0 .678.519.732.732 0 0 0 .184-.024.7.7 0 0 0 .5-.859.588.588 0 0 1 .152-.568.6.6 0 0 1 .571-.152.7.7 0 1 0 .359-1.354zm-7.653 11.813a2.006 2.006 0 0 0-1.927-.515.7.7 0 1 0 .362 1.354.589.589 0 0 1 .724.72.7.7 0 0 0 .5.859.719.719 0 0 0 .183.024.7.7 0 0 0 .678-.519 1.992 1.992 0 0 0-.52-1.923zm14.614-.323a1.734 1.734 0 0 0-2.126 2.122.7.7 0 0 0 .678.519.725.725 0 0 0 .183-.024.7.7 0 0 0 .5-.859.331.331 0 0 1 .407-.4.703.703 0 1 0 .358-1.36z"/></svg>