<svg xmlns="http://www.w3.org/2000/svg" width="32" height="30" viewBox="0 0 32 30"><defs><style>.cls-1{fill:#424141;fill-rule:evenodd}</style></defs><path class="cls-1" d="M31.782 26.044a9.232 9.232 0 0 0-7.683-5.512 9.064 9.064 0 0 0-3.171-3.256 9.419 9.419 0 0 0-4.291-1.353V12.54h2.531a9.054 9.054 0 0 0 9.206-8.872V.614A.626.626 0 0 0 27.737 0h-3.169A9.219 9.219 0 0 0 16 5.628 9.222 9.222 0 0 0 7.431 0H4.262a.626.626 0 0 0-.637.614v3.054a9.053 9.053 0 0 0 9.206 8.872h2.53v3.383a9.416 9.416 0 0 0-4.29 1.353A9.064 9.064 0 0 0 7.9 20.532a9.234 9.234 0 0 0-7.684 5.512 2.77 2.77 0 0 0 .293 2.674A3.035 3.035 0 0 0 3.009 30h25.989a3.036 3.036 0 0 0 2.5-1.282 2.768 2.768 0 0 0 .284-2.674zM16.637 8.873a7.8 7.8 0 0 1 7.931-7.644H27.1v2.439a7.8 7.8 0 0 1-7.931 7.644H17.54l6.949-6.7a.6.6 0 0 0 0-.869.655.655 0 0 0-.9 0l-6.949 6.7v-1.57zM7.511 4.614l6.949 6.7h-1.629A7.8 7.8 0 0 1 4.9 3.67V1.231h2.531a7.8 7.8 0 0 1 7.93 7.644v1.57l-6.948-6.7a.654.654 0 0 0-.9 0 .6.6 0 0 0-.002.869zm22.921 23.418a1.729 1.729 0 0 1-1.438.739H3.005a1.73 1.73 0 0 1-1.439-.739 1.561 1.561 0 0 1-.168-1.526 7.97 7.97 0 0 1 6.937-4.774.635.635 0 0 0 .537-.34 8.107 8.107 0 0 1 13.724-.879 9.541 9.541 0 0 0-1.947.331.612.612 0 0 0-.434.762.634.634 0 0 0 .612.443.681.681 0 0 0 .178-.024 8.22 8.22 0 0 1 2.224-.3l.434.012a7.968 7.968 0 0 1 6.938 4.773 1.558 1.558 0 0 1-.169 1.522zm-11.309-5.946a.652.652 0 0 0-.881-.185c-.105.065-.21.134-.313.2a.6.6 0 0 0-.155.856.653.653 0 0 0 .888.149c.088-.059.179-.118.27-.174a.6.6 0 0 0 .191-.846z"/></svg>