<svg xmlns="http://www.w3.org/2000/svg" width="36" height="34" viewBox="0 0 36 34"><defs><style>.cls-1{fill:#424141;fill-rule:evenodd}</style></defs><path class="cls-1" d="M35.126 18.4a20.514 20.514 0 0 0-11.665-9.54 3.822 3.822 0 0 0-.933-4.126l-1.11-1.079 2.28-2.217a.826.826 0 0 0 0-1.192.885.885 0 0 0-1.226 0l-2.358 2.292a4.137 4.137 0 0 0-4.243.008L13.51.246a.883.883 0 0 0-1.226 0 .826.826 0 0 0 0 1.192L14.57 3.66l-1.1 1.069a3.823 3.823 0 0 0-.932 4.127A20.511 20.511 0 0 0 .873 18.397a5.988 5.988 0 0 0-.53 5.084 6.645 6.645 0 0 0 3.085 3.5 7.124 7.124 0 0 0 3.433.906 6.461 6.461 0 0 0 1.235-.118 6.037 6.037 0 0 0 2.552-1.155 17.01 17.01 0 0 0 6.917 7.271.885.885 0 0 0 .869 0 17.015 17.015 0 0 0 6.918-7.272 6.037 6.037 0 0 0 2.551 1.154 6.458 6.458 0 0 0 1.234.118 7.122 7.122 0 0 0 3.434-.906 6.641 6.641 0 0 0 3.085-3.5 6 6 0 0 0-.53-5.079zM14.7 5.926l1.679-1.633a2.348 2.348 0 0 1 3.247 0l1.679 1.633a2.117 2.117 0 0 1 .6 2.153 7.715 7.715 0 0 0-7.8 0 2.119 2.119 0 0 1 .595-2.153zm.563 8.184h5.478a19.333 19.333 0 0 0 .2 3h-5.868a19.33 19.33 0 0 0 .187-3zm5.578-1.686h-5.677a19.081 19.081 0 0 0-.478-2.7 5.906 5.906 0 0 1 6.632 0 18.964 18.964 0 0 0-.48 2.7zm-6.087 6.374h6.5a19.922 19.922 0 0 0 .957 3H13.8a19.805 19.805 0 0 0 .951-2.998zm-3.926 5.067a4.616 4.616 0 0 1-3.071 2.251 5.163 5.163 0 0 1-3.469-.6 4.946 4.946 0 0 1-2.306-2.591 4.392 4.392 0 0 1 .417-3.718 18.829 18.829 0 0 1 4.759-5.589 18.584 18.584 0 0 1 5.926-3.156 17.311 17.311 0 0 1 .412 2.811 33.208 33.208 0 0 1-.166 3.758 18.217 18.217 0 0 1-1.613 5.2c-.017.032-.584 1.13-.892 1.634zM18 32.173a15.382 15.382 0 0 1-4.39-4h8.781a15.386 15.386 0 0 1-4.391 4zm5.47-5.675H12.534c-.218-.394-.416-.8-.6-1.211.133-.181.26-.369.381-.566q.372-.611.7-1.239h9.97q.326.627.7 1.237c.121.2.249.387.382.567q-.273.622-.598 1.214zm10.551-3.575a4.946 4.946 0 0 1-2.306 2.591 5.171 5.171 0 0 1-3.47.6 4.62 4.62 0 0 1-3.07-2.251c-.308-.5-.872-1.6-.888-1.628a18.173 18.173 0 0 1-1.614-5.206 33.518 33.518 0 0 1-.166-3.763 17.263 17.263 0 0 1 .412-2.807 18.6 18.6 0 0 1 5.926 3.157 18.817 18.817 0 0 1 4.759 5.589 4.393 4.393 0 0 1 .416 3.718zm-23.112-8.4a.884.884 0 0 0-1.2-.23c-.121.08-.611.419-.734.509a.828.828 0 0 0-.171 1.18.885.885 0 0 0 1.214.167c.111-.081.55-.385.659-.456a.829.829 0 0 0 .231-1.166zm-3.041 2.284a.885.885 0 0 0-1.225.053 16.8 16.8 0 0 0-2.425 3.306.831.831 0 0 0 .347 1.144.892.892 0 0 0 .414.1.873.873 0 0 0 .763-.44 15.079 15.079 0 0 1 2.18-2.974.826.826 0 0 0-.055-1.185zM31 20.931a2.574 2.574 0 0 0-.176-.678.875.875 0 0 0-1.125-.476.835.835 0 0 0-.49 1.093.878.878 0 0 1 .065.234.859.859 0 0 0 .862.757h.09a.85.85 0 0 0 .774-.93zm-1.744-3.129l-.047-.057a15.488 15.488 0 0 0-3.6-3.27.882.882 0 0 0-1.2.229.829.829 0 0 0 .236 1.17 13.778 13.778 0 0 1 3.2 2.907l.041.052a.883.883 0 0 0 1.216.152.829.829 0 0 0 .149-1.185z"/></svg>