<svg xmlns="http://www.w3.org/2000/svg" width="35" height="25.031" viewBox="0 0 35 25.031"><defs><style>.cls-1{fill:#424141;fill-rule:evenodd}</style></defs><path id="Forma_1" data-name="Forma 1" class="cls-1" d="M573.65 564.835l-11.75-8.683a.893.893 0 0 0-1.057 0l-1.932 1.428-1.931-1.428a.893.893 0 0 0-1.057 0l-1.884 1.392-1.883-1.392a.893.893 0 0 0-1.057 0l-11.751 8.683a.854.854 0 0 0-.349.687v14.618a.869.869 0 0 0 .878.86h33.245a.868.868 0 0 0 .877-.86v-14.618a.854.854 0 0 0-.349-.687zm-1.406 14.445h-3.165v-13.758a.854.854 0 0 0-.349-.687l-8.361-6.178 1-.741 10.872 8.034v13.33zm-7.989 0v-13.758a.854.854 0 0 0-.349-.687l-8.409-6.214.954-.7 10.873 8.034v13.33h-3.069zm-11.19 0h-2.875v-6.237h2.875v6.237zm1.755 0v-7.1a.869.869 0 0 0-.878-.86h-4.63a.869.869 0 0 0-.878.86v7.1h-7.679v-13.33l10.873-8.034 10.872 8.034v13.33h-7.68z" transform="translate(-539 -555.969)"/></svg>