<svg xmlns="http://www.w3.org/2000/svg" width="31" height="30" viewBox="0 0 31 30"><defs><style>.cls-1{fill:#424141;fill-rule:evenodd}</style></defs><path class="cls-1" d="M7.619 7.379a.7.7 0 1 0 .7.7.7.7 0 0 0-.7-.7zm14.614 7.927a.703.703 0 0 0-1.292.557 1.276 1.276 0 0 1-1.285 1.777.7.7 0 0 0-1.378.185 3.253 3.253 0 0 1-3.252 3.194.115.115 0 0 1-.017-.006 3.25 3.25 0 0 1-3.2-3.3.704.704 0 0 0-1.408-.021 4.5 4.5 0 0 0 4.625 4.727 4.663 4.663 0 0 0 4.482-3.387c.087.007.173.012.259.012a2.681 2.681 0 0 0 2.466-3.738zM30.3 8.9h-1.669l1.178-1.175a.705.705 0 0 0-1-.993l-1.178 1.176V6.245a.704.704 0 0 0-1.408 0v3.36c0 1.611-1.869 2.922-4.165 2.922H13.67V8.972a5.174 5.174 0 0 0-3.44-4.866 2.614 2.614 0 1 0-4.627-2.319 2.229 2.229 0 0 0-1.249 4.079 5.108 5.108 0 0 0-.978 2.305A5.034 5.034 0 0 0 .367 9.316a1.016 1.016 0 0 0 .008 1.572 5.139 5.139 0 0 0 1.044.655v2.122a.736.736 0 0 0 .006.082 1.722 1.722 0 0 0 1.676 1.526h.283a12.167 12.167 0 0 0 10.766 10.76V28.6h-1.975a.7.7 0 1 0 0 1.4h7.047a.7.7 0 1 0 0-1.4h-.942v-2.818a12.159 12.159 0 0 0 9.352-11.805V10.3H30.3a.7.7 0 1 0 0-1.4zM3.1 14.009a.457.457 0 0 1-.415-.392V11.95a5.077 5.077 0 0 0 .628.075v1.984H3.1zm.556-3.379a3.725 3.725 0 0 1-1.97-.534 3.648 3.648 0 0 1 1.972-.525.492.492 0 0 1 .511.534.481.481 0 0 1-.512.525zm1.946-7.439a.828.828 0 0 1 .306.058.7.7 0 0 0 .655-.067.7.7 0 0 0 .312-.578 1.212 1.212 0 1 1 1.39 1.2 5.053 5.053 0 0 0-2.856 1.013.826.826 0 0 1 .191-1.626zm11.27 25.405h-1.317V26.1a12.174 12.174 0 0 0 1.317-.08v2.58zm9.351-14.623a10.752 10.752 0 0 1-21.5 0v-.039h1.323a.7.7 0 1 0 0-1.4H4.723v-.794a1.991 1.991 0 0 0 .032-3.249 3.772 3.772 0 0 1 7.511.485v3.555H9.43a.7.7 0 1 0 0 1.4h12.63a6.487 6.487 0 0 0 3.863-1.2c.106-.078.2-.16.3-.244v1.488zm-18.6-6.594a.7.7 0 1 0 .7.7.7.7 0 0 0-.704-.7zm14.614 7.927a.703.703 0 0 0-1.292.557 1.276 1.276 0 0 1-1.285 1.777.7.7 0 0 0-1.378.185 3.253 3.253 0 0 1-3.252 3.194.115.115 0 0 1-.017-.006 3.25 3.25 0 0 1-3.2-3.3.704.704 0 0 0-1.408-.021 4.5 4.5 0 0 0 4.625 4.727 4.663 4.663 0 0 0 4.482-3.387c.087.007.173.012.259.012a2.681 2.681 0 0 0 2.462-3.738zM7.623 7.379a.7.7 0 1 0 .7.7.7.7 0 0 0-.704-.7zm14.614 7.927a.703.703 0 0 0-1.292.557 1.276 1.276 0 0 1-1.285 1.777.7.7 0 0 0-1.378.185 3.253 3.253 0 0 1-3.252 3.194.115.115 0 0 1-.017-.006 3.25 3.25 0 0 1-3.2-3.3.704.704 0 0 0-1.408-.021 4.5 4.5 0 0 0 4.625 4.727 4.663 4.663 0 0 0 4.482-3.387c.087.007.173.012.259.012a2.681 2.681 0 0 0 2.462-3.738z"/></svg>