<svg xmlns="http://www.w3.org/2000/svg" width="29" height="29" viewBox="0 0 29 29"><defs><style>.cls-1{fill:#424141;fill-rule:evenodd}</style></defs><path id="Forma_1" data-name="Forma 1" class="cls-1" d="M699.784 581.7a.537.537 0 1 1-.527.537.532.532 0 0 1 .527-.537zm-1.055-1.612a.538.538 0 1 1-.527.537.533.533 0 0 1 .527-.533zm-1.055-1.611a.537.537 0 1 1-.527.537.533.533 0 0 1 .527-.533zm2.11 0a.537.537 0 1 1-.527.537.532.532 0 0 1 .527-.533zm-3.164-1.611a.537.537 0 1 1-.528.537.532.532 0 0 1 .528-.533zm2.109 0a.537.537 0 1 1-.527.537.533.533 0 0 1 .527-.533zm-3.164-1.611a.537.537 0 1 1-.528.537.532.532 0 0 1 .528-.533zm2.109 0a.537.537 0 1 1-.527.537.533.533 0 0 1 .527-.533zm3.165 8.056a.537.537 0 1 1-.528.537.532.532 0 0 1 .528-.533zm-2.11 0a.537.537 0 1 1-.527.537.533.533 0 0 1 .527-.533zm-1.055-1.611a.537.537 0 1 1-.527.537.533.533 0 0 1 .527-.537zm-1.054-1.612a.538.538 0 1 1-.528.537.532.532 0 0 1 .528-.533zm-1.055-1.611a.537.537 0 1 1-.528.537.532.532 0 0 1 .528-.533zm-1.055-1.611a.537.537 0 1 1-.528.537.532.532 0 0 1 .528-.533zm1.055 4.834a.537.537 0 1 1-.528.537.532.532 0 0 1 .528-.537zm-1.055-1.612a.538.538 0 1 1-.528.537.532.532 0 0 1 .528-.533zm-1.055-1.611a.537.537 0 1 1-.527.537.532.532 0 0 1 .527-.533zm3.165 4.834a.537.537 0 1 1-.528.537.532.532 0 0 1 .528-.533zm-2.11 0a.537.537 0 1 1-.528.537.532.532 0 0 1 .528-.533zm-1.055-1.611a.537.537 0 1 1-.527.537.532.532 0 0 1 .527-.537zm-1.055-1.612a.538.538 0 1 1-.527.537.533.533 0 0 1 .527-.533zm-1.055 1.612a.537.537 0 1 1-.527.537.532.532 0 0 1 .527-.537zm1.055 1.611a.537.537 0 1 1-.527.537.532.532 0 0 1 .527-.533zm-2.109 0a.537.537 0 1 1-.528.537.532.532 0 0 1 .528-.533zm12.855-2.049a35.432 35.432 0 0 1-2.009-3.118 34.816 34.816 0 0 0-2.029-3.144 4.636 4.636 0 0 0-3.016-1.867v-15.6a.532.532 0 0 0-.528-.537h-20.041a.532.532 0 0 0-.527.537v24.7a.537.537 0 0 0 .319.493l3.679 1.611a.525.525 0 0 0 .208.044h8.172a1.7 1.7 0 0 0 .136.4c.275.55.981 1.207 2.774 1.207h9.578c1.991 0 3.427-.628 3.941-1.722a2.865 2.865 0 0 0-.657-3zm-24.471 1.77l-2.624-1.149v-23.809h2.624v24.962zm1.071-24.962h15.291v15.091a3.46 3.46 0 0 0-.42.1c-.037.011-.074.027-.111.04a3.85 3.85 0 0 0-.319.12c-.052.023-.1.051-.155.076a3.874 3.874 0 0 0-.263.138c-.055.032-.109.067-.163.1a4.363 4.363 0 0 0-.243.167c-.053.04-.107.08-.159.122a7.278 7.278 0 0 0-.234.2c-.049.044-.1.088-.147.135a5.826 5.826 0 0 0-.24.254c-.04.044-.081.085-.119.131a6.168 6.168 0 0 0-.336.431c-.474.668-1.052 1.68-1.671 2.792l-.386.694c-.238.43-.478.863-.714 1.28-.486.862-.951 1.653-1.323 2.176l-.019.028a3.888 3.888 0 0 0-.2.314c-.019.031-.035.063-.053.094a4.396 4.396 0 0 0-.133.253c-.014.031-.029.063-.042.1-.038.083-.07.165-.1.247-.011.03-.022.06-.031.089s-.018.048-.024.071h-7.683v-25.239zm10.538 26.852a2.033 2.033 0 0 1-1.834-.621.524.524 0 0 0 .056-.865c.008-.02.013-.04.022-.06l.021-.047c.034-.074.073-.151.118-.229.011-.02.022-.041.035-.061.055-.094.116-.19.185-.287l.055-.08a.515.515 0 0 0 .294.1.532.532 0 0 0 .273-.986c.145-.238.294-.491.447-.756a.515.515 0 0 0 .335.131.536.536 0 0 0 .179-1.038l.127-.227.324-.582a.514.514 0 0 0 .424.235.534.534 0 0 0 .037-1.066c.176-.317.351-.627.522-.926a.523.523 0 0 0 .5.381.537.537 0 0 0 0-1.074.467.467 0 0 0-.105.022c.234-.394.453-.742.647-1.022a.525.525 0 0 0 .513.463.537.537 0 0 0 0-1.074h-.019a4.14 4.14 0 0 1 .436-.408 3.4 3.4 0 0 1 .3-.21l.027-.02a2.747 2.747 0 0 1 1.384-.439h.07a3.477 3.477 0 0 1 2.637 1.5 34.836 34.836 0 0 1 1.949 3.03c.306.507.615 1.018.914 1.5a.512.512 0 0 0-.313-.116.538.538 0 1 0 .527.537.547.547 0 0 0-.022-.114c.331.523.642.987.918 1.343a.519.519 0 0 0-.368-.154.545.545 0 1 0 .389.182l.043.056a2.467 2.467 0 0 1 .616 1.374.53.53 0 0 0-.389.88 4.1 4.1 0 0 1-2.691.73h-9.578zm-4.213-14.378a.532.532 0 0 0 .528-.537v-1.965c0-.08-.007-.159-.012-.237l.162.165a.522.522 0 0 0 .746 0l.171-.174c-.006.082-.013.163-.013.246v1.965a.533.533 0 0 0 .528.537h1.929a3.379 3.379 0 0 0 3.345-3.406v-1.965a.532.532 0 0 0-.527-.537H691a3.265 3.265 0 0 0-1.235.244 3.444 3.444 0 0 0-.9-3.116l-1.364-1.389a.52.52 0 0 0-.746 0l-1.364 1.39a3.444 3.444 0 0 0-.9 3.112 3.251 3.251 0 0 0-1.226-.241h-1.929a.532.532 0 0 0-.528.537v1.965a3.379 3.379 0 0 0 3.345 3.406h1.929zm6.329-4.834v1.428a2.314 2.314 0 0 1-2.29 2.332h-1.4v-1.428a2.314 2.314 0 0 1 2.29-2.332h1.4zm-6.269-3.186l.991-1.009.991 1.009a2.365 2.365 0 0 1 0 3.3l-.991 1.009-.991-1.009a2.365 2.365 0 0 1 0-3.296zm-4.279 4.615v-1.428h1.4a2.313 2.313 0 0 1 2.29 2.332v1.427h-1.4a2.313 2.313 0 0 1-2.29-2.327zm10.021 7.042a.532.532 0 0 0-.528-.537h-7.911a.537.537 0 0 0 0 1.074h7.911a.532.532 0 0 0 .528-.533zm-6.857-2.148a.537.537 0 0 0 0 1.074h5.275a.537.537 0 0 0 0-1.074h-5.275zm5.8 3.759a.532.532 0 0 0-.527-.537h-5.275a.537.537 0 0 0 0 1.074h5.275a.532.532 0 0 0 .529-.529z" transform="translate(-675 -557)"/></svg>