<svg xmlns="http://www.w3.org/2000/svg" width="34" height="28" viewBox="0 0 34 28"><defs><style>.cls-1{fill:#424141;fill-rule:evenodd}</style></defs><path class="cls-1" d="M25.5 16.1a3.5 3.5 0 1 0 3.542 3.5 3.522 3.522 0 0 0-3.542-3.5zm0 5.6a2.1 2.1 0 1 1 2.125-2.1 2.115 2.115 0 0 1-2.125 2.1zm5.983-8.067L29.928 1.4h.529a.7.7 0 1 0 0-1.4H14.874a.7.7 0 1 0 0 1.4h.977l-3.089 9.829h-.3c-.625 0-2.163.02-3.964.2V9.815h1.417V4.2H8.5V2.8h-.007A2.112 2.112 0 0 0 6.368.7a.7.7 0 1 0 0 1.4.705.705 0 0 1 .708.7h.008v1.4H5.667v5.613h1.417V11.6C4.14 12.015.963 12.894.001 14.749V21.7a6.379 6.379 0 0 0 12.71.7h4.773A8.516 8.516 0 0 0 34 19.6a8.326 8.326 0 0 0-2.518-5.967zM7.083 5.6H8.5v2.813H7.084V5.6zm4.2 16.81a4.832 4.832 0 0 1-.942 2.234.716.716 0 0 0-.969.029.694.694 0 0 0-.031.956 4.941 4.941 0 0 1-2.26.922.707.707 0 0 0-1.41 0 4.942 4.942 0 0 1-2.259-.922.694.694 0 0 0-.032-.956.715.715 0 0 0-.968-.029 4.834 4.834 0 0 1-.943-2.234.7.7 0 0 0 0-1.395 4.829 4.829 0 0 1 .934-2.244.713.713 0 0 0 .98-.019.692.692 0 0 0 .018-.97 4.928 4.928 0 0 1 2.271-.932.708.708 0 0 0 1.414 0 4.928 4.928 0 0 1 2.271.932.694.694 0 0 0 .018.97.713.713 0 0 0 .98.019 4.815 4.815 0 0 1 .934 2.243.7.7 0 0 0-.008 1.396zM17.12 21h-4.41a6.4 6.4 0 0 0-11.279-3.279l-.013-2.581c.673-.859 2.48-1.59 5.049-2.032a38.472 38.472 0 0 1 6-.481h.272l1.064.02.316-1 3.22-10.244H28.5l1.4 11.01a8.511 8.511 0 0 0-1.519-.716l-1.13-8.9h-8.872l-3.52 11.2h4.306A8.32 8.32 0 0 0 17.118 21zm9.786-9.685a8.677 8.677 0 0 0-1.4-.115 8.534 8.534 0 0 0-4.7 1.4h-4.019l2.64-8.4H26zm5.055 11.164a.713.713 0 0 0-.939.271.7.7 0 0 0 .231.938 7.226 7.226 0 0 1-1.616 1.6.711.711 0 0 0-.948-.228.694.694 0 0 0-.274.928 7.079 7.079 0 0 1-2.207.581.708.708 0 0 0-1.413 0 7.092 7.092 0 0 1-2.208-.581.694.694 0 0 0-.273-.928.713.713 0 0 0-.949.228 7.139 7.139 0 0 1-1.615-1.6.694.694 0 0 0 .23-.938.713.713 0 0 0-.939-.271 6.916 6.916 0 0 1-.589-2.181.7.7 0 0 0 0-1.4 6.923 6.923 0 0 1 .589-2.181.712.712 0 0 0 .939-.271.694.694 0 0 0-.23-.938 7.012 7.012 0 0 1 .742-.862 7.3 7.3 0 0 1 .872-.734.713.713 0 0 0 .95.228.7.7 0 0 0 .274-.928 7.052 7.052 0 0 1 2.207-.581.708.708 0 0 0 1.413 0 7.052 7.052 0 0 1 2.207.581.694.694 0 0 0 .274.928.71.71 0 0 0 .948-.228 7.235 7.235 0 0 1 .873.734 7.108 7.108 0 0 1 .743.862.7.7 0 0 0-.231.938.712.712 0 0 0 .939.271 6.9 6.9 0 0 1 .59 2.181.7.7 0 0 0 0 1.4 6.891 6.891 0 0 1-.592 2.181zM6.374 19.6a2.1 2.1 0 1 0 2.125 2.1 2.113 2.113 0 0 0-2.125-2.1zm0 2.8a.7.7 0 1 1 .709-.7.705.705 0 0 1-.709.7z"/></svg>